<svg xmlns="http://www.w3.org/2000/svg" viewBox="0 0 48 48"><defs><style>.cls-1{fill:#374f68}.cls-2{fill:#425b72}.cls-3{fill:#9fdbf3}.cls-4{fill:#b2e5fb}</style></defs><g id="Transfer"><path class="cls-1" d="M21 28v3a2 2 0 0 1-2 2H3a2 2 0 0 1-2-2v-3z"/><path class="cls-2" d="M21 28v3H7a3 3 0 0 1-3-3z"/><path class="cls-1" d="M21 3v3H1V3a2 2 0 0 1 2-2h16a2 2 0 0 1 2 2z"/><path class="cls-2" d="M21 3v1H7a3 3 0 0 1-3-3h15a2 2 0 0 1 2 2z"/><path class="cls-3" d="M1 6h20v22H1z"/><path class="cls-4" d="M21 6v20H7a3 3 0 0 1-3-3V6z"/><path class="cls-1" d="M47 42v3a2 2 0 0 1-2 2H29a2 2 0 0 1-2-2v-3z"/><path class="cls-2" d="M47 42v3H33a3 3 0 0 1-3-3z"/><path class="cls-1" d="M47 17v3H27v-3a2 2 0 0 1 2-2h16a2 2 0 0 1 2 2z"/><path class="cls-2" d="M47 17v1H33a3 3 0 0 1-3-3h15a2 2 0 0 1 2 2z"/><path class="cls-3" d="M27 20h20v22H27z"/><path class="cls-4" d="M47 20v20H33a3 3 0 0 1-3-3V20z"/><path class="cls-2" d="M38 4h-5l1.6-1.2a1 1 0 0 0-1.2-1.6c-5 3.78-3.8 2.84-4 3.05a1 1 0 0 0-.26 1.17c.15.32.24.33 4.3 3.38a1 1 0 0 0 1.2-1.6L33 6h5a2 2 0 0 1 2 2v3a1 1 0 0 0 2 0V8a4 4 0 0 0-4-4zM14.6 39.2a1 1 0 0 0-1.2 1.6L15 42h-5a2 2 0 0 1-2-2v-3a1 1 0 0 0-2 0v3a4 4 0 0 0 4 4h5l-1.6 1.2a1 1 0 0 0 1.2 1.6c5.9-4.42 5.89-3.18 0-7.6z"/><path d="M16.12 20.12a6 6 0 1 1-8.24-8.24c5.34-3.28 11.53 2.96 8.24 8.24z" style="fill:#9dcc6b"/><path d="M16.76 18.67a6 6 0 0 1-9.52-6.35 6 6 0 0 1 9.52 6.35z" style="fill:#b5e08c"/><path d="M8.29 17.71a1 1 0 0 1 1.42-1.42l.62.63 2-2a1 1 0 0 1 1.42 1.41c-3.75 3.77-3.09 3.74-5.46 1.38z" style="fill:#edebf2"/><path d="M37 30a1 1 0 1 1 1-1 1 1 0 0 0 1 1c1.66 0 1.21-3-1-3.82a1 1 0 1 0-2 0A3 3 0 0 0 37 32a1 1 0 1 1-1 1 1 1 0 0 0-1-1c-1.66 0-1.21 3 1 3.82a1 1 0 1 0 2 0A3 3 0 0 0 37 30z" style="fill:#f8834b"/></g></svg>